<svg xmlns="http://www.w3.org/2000/svg" viewBox="0 0 1600 980" role="img" aria-labelledby="title desc">
<title id="title">Pastel SEO playground background</title><desc id="desc">Pastel search, metaphysics, community and portfolio artwork.</desc>
<defs><linearGradient id="sky" x1="0" x2="1" y1="0" y2="1"><stop offset="0" stop-color="#fff7f1"/><stop offset=".32" stop-color="#f5e5ff"/><stop offset=".66" stop-color="#dcf7ef"/><stop offset="1" stop-color="#fff0c9"/></linearGradient><radialGradient id="glow" cx="22%" cy="20%" r="60%"><stop offset="0" stop-color="#fff" stop-opacity=".9"/><stop offset="1" stop-color="#fff" stop-opacity="0"/></radialGradient><filter id="shadow" x="-20%" y="-20%" width="140%" height="140%"><feDropShadow dx="0" dy="24" stdDeviation="28" flood-color="#856c93" flood-opacity=".18"/></filter><linearGradient id="card" x1="0" x2="1"><stop offset="0" stop-color="#fff" stop-opacity=".94"/><stop offset="1" stop-color="#fff9f4" stop-opacity=".76"/></linearGradient></defs>
<rect width="1600" height="980" fill="url(#sky)"/><rect width="1600" height="980" fill="url(#glow)"/>
<g opacity=".28" fill="none" stroke="#efb7d0" stroke-width="2"><path d="M80 742 C290 628 440 804 650 692 S1060 566 1450 640"/><path d="M220 510 C410 430 600 518 760 430 S1140 286 1500 388"/></g>
<g opacity=".25" stroke="#7cbec8" stroke-width="2"><path d="M1058 194 1185 250 1308 178 1388 300 1288 410 1150 372 1058 194Z" fill="none"/><circle cx="1058" cy="194" r="6" fill="#7cbec8"/><circle cx="1185" cy="250" r="6" fill="#7cbec8"/><circle cx="1308" cy="178" r="6" fill="#7cbec8"/><circle cx="1388" cy="300" r="6" fill="#7cbec8"/><circle cx="1288" cy="410" r="6" fill="#7cbec8"/></g>
<g filter="url(#shadow)"><g transform="translate(760 150) rotate(5)"><rect width="390" height="196" rx="34" fill="url(#card)"/><rect x="36" y="36" width="116" height="15" rx="8" fill="#83d7c4"/><rect x="36" y="70" width="270" height="18" rx="9" fill="#d6c5ff"/><rect x="36" y="104" width="320" height="13" rx="7" fill="#ffd1c2"/><rect x="36" y="130" width="238" height="13" rx="7" fill="#ffd1c2"/><circle cx="330" cy="58" r="25" fill="#fff1ac"/></g><g transform="translate(1040 360) rotate(-7)"><rect width="320" height="168" rx="30" fill="url(#card)"/><rect x="34" y="34" width="112" height="16" rx="8" fill="#ffb3c9"/><rect x="34" y="70" width="225" height="13" rx="7" fill="#89dbd0"/><rect x="34" y="98" width="250" height="13" rx="7" fill="#d9c7ff"/><rect x="34" y="126" width="175" height="13" rx="7" fill="#ffd77f"/></g></g>
<g transform="translate(1045 520)" opacity=".72"><circle cx="190" cy="190" r="172" fill="none" stroke="#fff" stroke-width="28"/><circle cx="190" cy="190" r="125" fill="none" stroke="#d4b9ff" stroke-width="3"/><circle cx="190" cy="190" r="88" fill="none" stroke="#88d8c4" stroke-width="2"/><path d="M190 22 214 158 358 190 214 222 190 358 166 222 22 190 166 158Z" fill="#fff4d7" opacity=".82"/><path d="M190 48 203 167 332 190 203 213 190 332 177 213 48 190 177 167Z" fill="none" stroke="#ff9f94" stroke-width="2"/></g>
<g transform="translate(100 690)" opacity=".6"><path d="M0 146h1380v74H0z" fill="#fff" opacity=".42"/><path d="M70 146V84l46 62V58l58 88V40l68 106V96l38 50V70l54 76V38l76 108V88l44 58V20l90 126V96l48 50V64l68 82V32l70 114V78l42 68V48l62 98V83l54 63V38l80 108V98l40 48V70l56 76V48l68 98V92l38 54V76l54 70V96l44 50z" fill="#b3dfe5"/></g>
</svg>
